<?xml version="1.0" standalone="no"?>
<!DOCTYPE svg PUBLIC "-//W3C//DTD SVG 20010904//EN"
 "http://www.w3.org/TR/2001/REC-SVG-20010904/DTD/svg10.dtd">
<svg version="1.0" xmlns="http://www.w3.org/2000/svg"
 width="112.000000pt" height="112.000000pt" viewBox="0 0 112.000000 112.000000"
 preserveAspectRatio="xMidYMid meet">
<metadata>
Created by potrace 1.16, written by Peter Selinger 2001-2019
</metadata>
<g transform="translate(0.000000,112.000000) scale(0.100000,-0.100000)"
fill="#FFFFFF" stroke="none">
<path d="M700 965 c0 -8 -9 -15 -20 -15 -11 0 -20 -4 -20 -10 0 -13 16 -13 41
0 20 11 27 40 9 40 -5 0 -10 -7 -10 -15z"/>
<path d="M677 900 c-3 -11 -1 -20 4 -20 5 0 8 -3 8 -7 -3 -21 2 -33 16 -33 18
0 19 -5 3 -29 -10 -16 -7 -24 15 -51 15 -17 27 -27 27 -21 0 6 11 11 25 11 26
0 34 -15 13 -23 -7 -2 -2 -2 12 0 14 3 29 11 33 19 4 8 17 14 29 14 16 0 18 3
9 14 -6 7 -22 34 -35 59 -23 46 -20 67 11 67 7 0 13 5 13 10 0 6 -7 10 -15 10
-8 0 -15 -4 -15 -10 0 -6 -27 -10 -60 -10 -33 0 -60 4 -60 10 0 19 -28 10 -33
-10z"/>
<path d="M652 780 c0 -19 2 -27 5 -17 2 9 2 25 0 35 -3 9 -5 1 -5 -18z"/>
<path d="M588 756 c-19 -14 -23 -26 -10 -26 4 0 13 9 20 20 14 23 13 24 -10 6z"/>
<path d="M463 718 c-19 -9 -39 -37 -31 -43 2 -1 16 11 32 27 32 31 32 32 -1
16z"/>
<path d="M356 713 c-31 -8 -61 -46 -64 -78 -1 -23 1 -26 8 -15 5 8 10 21 10
28 0 20 26 42 49 42 12 0 21 4 21 9 0 5 8 12 18 14 14 4 13 5 -3 5 -11 0 -29
-3 -39 -5z"/>
<path d="M418 588 c-19 -58 -18 -64 9 -49 20 10 46 78 37 93 -13 20 -30 4 -46
-44z"/>
<path d="M600 616 c0 -13 -7 -29 -15 -36 -8 -7 -15 -19 -15 -26 0 -8 -5 -14
-12 -14 -6 0 -9 -3 -5 -6 10 -10 67 20 73 38 6 21 -5 68 -17 68 -5 0 -9 -11
-9 -24z"/>
<path d="M736 401 c-7 -10 27 -51 42 -51 6 0 14 -9 17 -20 3 -11 10 -20 15
-20 5 0 29 -20 53 -45 25 -25 55 -45 66 -45 33 0 25 17 -14 31 -19 7 -35 19
-35 26 0 7 -11 18 -24 24 -13 6 -29 22 -34 34 -6 13 -20 26 -30 29 -11 4 -22
16 -25 26 -5 21 -22 26 -31 11z"/>
<path d="M550 270 c0 -11 4 -20 9 -20 4 0 21 -20 37 -45 25 -41 64 -62 64 -35
0 6 -4 10 -9 10 -5 0 -12 8 -15 18 -7 20 -68 92 -79 92 -4 0 -7 -9 -7 -20z"/>
<path d="M531 234 c0 -11 3 -14 6 -6 3 7 2 16 -1 19 -3 4 -6 -2 -5 -13z"/>
<path d="M282 155 c-1 -14 3 -25 8 -25 6 0 10 7 10 15 0 8 0 18 1 22 0 4 -3 9
-8 10 -5 2 -10 -8 -11 -22z"/>
<path d="M527 167 c-10 -27 -9 -101 3 -133 16 -42 20 -25 12 66 -4 53 -10 78
-15 67z"/>
</g>
</svg>
