<?xml version="1.0" standalone="no"?>
<!DOCTYPE svg PUBLIC "-//W3C//DTD SVG 20010904//EN"
 "http://www.w3.org/TR/2001/REC-SVG-20010904/DTD/svg10.dtd">
<svg version="1.0" xmlns="http://www.w3.org/2000/svg"
 width="112.000000pt" height="112.000000pt" viewBox="0 0 112.000000 112.000000"
 preserveAspectRatio="xMidYMid meet">
<metadata>
Created by potrace 1.16, written by Peter Selinger 2001-2019
</metadata>
<g transform="translate(0.000000,112.000000) scale(0.100000,-0.100000)"
fill="#FFFFFF" stroke="none">
<path d="M930 1015 c0 -9 -7 -18 -15 -21 -18 -7 -21 -47 -2 -42 6 3 13 14 15
26 3 17 10 22 33 22 19 0 29 5 29 15 0 10 -10 15 -30 15 -20 0 -30 -5 -30 -15z"/>
<path d="M930 948 c0 -4 -15 -11 -32 -16 -30 -7 -33 -12 -36 -50 -3 -36 0 -42
17 -42 10 0 21 4 23 9 2 5 16 13 31 16 25 7 29 4 39 -23 11 -27 16 -30 56 -30
l44 0 -19 21 c-10 12 -37 41 -61 64 l-43 42 28 3 c25 3 24 4 -9 9 -21 3 -38 2
-38 -3z m40 -43 c0 -14 -21 -25 -47 -25 -12 0 -13 3 -3 15 6 8 9 18 6 23 -3 5
6 7 19 4 14 -2 25 -10 25 -17z m50 -69 c0 -2 -7 -7 -16 -10 -8 -3 -12 -2 -9 4
6 10 25 14 25 6z"/>
<path d="M198 872 c-9 -4 -26 -19 -37 -34 -25 -31 -29 -57 -5 -34 21 22 34 20
34 -4 0 -24 13 -26 35 -4 10 11 14 25 11 40 -6 22 -3 24 31 25 30 0 34 2 18 9
-24 10 -64 11 -87 2z"/>
<path d="M683 863 c-13 -2 -23 -9 -23 -14 0 -14 30 -11 46 6 9 8 12 14 7 14
-4 -1 -18 -4 -30 -6z"/>
<path d="M456 845 c-6 -16 3 -19 28 -9 22 8 20 24 -3 24 -10 0 -21 -7 -25 -15z"/>
<path d="M510 790 c0 -11 -4 -20 -9 -20 -12 0 -35 -69 -26 -78 4 -4 10 -1 12
6 3 6 14 12 26 12 30 1 54 21 62 53 6 24 4 27 -19 27 -14 0 -26 5 -26 10 0 6
-4 10 -10 10 -5 0 -10 -9 -10 -20z"/>
<path d="M746 740 c-10 -23 -15 -44 -12 -48 4 -3 10 -1 14 5 4 6 21 13 37 15
26 3 30 7 30 33 0 25 -4 30 -25 33 -21 2 -28 -5 -44 -38z"/>
<path d="M148 640 c4 -30 6 -95 5 -145 l-2 -90 14 49 c7 27 13 67 13 88 0 29
5 43 21 54 22 16 28 39 11 49 -5 3 -19 -9 -30 -27 l-20 -33 -1 35 c0 19 -5 44
-10 55 -6 13 -6 1 -1 -35z"/>
<path d="M650 492 c0 -10 9 -43 20 -75 11 -31 20 -61 20 -66 0 -28 53 -120 72
-125 37 -9 39 4 7 36 -17 17 -35 43 -41 57 -16 41 -38 160 -31 176 4 11 -2 15
-21 15 -18 0 -26 -5 -26 -18z"/>
<path d="M657 345 c7 -61 9 -65 15 -26 2 16 -1 40 -8 53 -10 19 -11 16 -7 -27z"/>
<path d="M221 323 c-1 -41 12 -76 40 -104 12 -12 20 -18 17 -13 -24 51 -42 94
-48 119 l-8 30 -1 -32z"/>
<path d="M671 267 c-1 -18 25 -77 35 -77 2 0 -1 10 -7 22 -6 12 -15 33 -20 47
-5 17 -8 20 -8 8z"/>
<path d="M220 205 c0 -8 9 -15 20 -15 11 0 20 7 20 15 0 8 -9 15 -20 15 -11 0
-20 -7 -20 -15z"/>
</g>
</svg>
