<?xml version="1.0" standalone="no"?>
<!DOCTYPE svg PUBLIC "-//W3C//DTD SVG 20010904//EN"
 "http://www.w3.org/TR/2001/REC-SVG-20010904/DTD/svg10.dtd">
<svg version="1.0" xmlns="http://www.w3.org/2000/svg"
 width="112.000000pt" height="112.000000pt" viewBox="0 0 112.000000 112.000000"
 preserveAspectRatio="xMidYMid meet">
<metadata>
Created by potrace 1.16, written by Peter Selinger 2001-2019
</metadata>
<g transform="translate(0.000000,112.000000) scale(0.100000,-0.100000)"
fill="#FFFFFF" stroke="none">
<path d="M880 855 c0 -8 -5 -15 -11 -15 -5 0 -7 -5 -4 -10 4 -7 12 -7 25 0 10
5 30 10 44 10 16 0 26 6 26 15 0 11 -11 15 -40 15 -29 0 -40 -4 -40 -15z"/>
<path d="M844 812 c-16 -10 -26 -46 -18 -66 7 -17 34 -22 34 -6 0 18 59 11 79
-9 11 -11 17 -22 14 -24 -2 -3 0 -14 6 -25 7 -14 17 -18 36 -15 25 5 35 23 13
23 -7 0 -26 20 -43 45 -31 46 -39 52 -50 35 -9 -14 -35 7 -36 29 0 10 -2 11
-6 4 -2 -7 -9 -13 -15 -13 -6 0 -8 7 -4 15 6 17 5 18 -10 7z"/>
<path d="M890 805 c0 -8 2 -15 4 -15 2 0 6 7 10 15 3 8 1 15 -4 15 -6 0 -10
-7 -10 -15z"/>
<path d="M123 761 c-37 -10 -94 -101 -64 -101 5 0 16 7 25 15 8 8 19 15 25 15
6 0 11 5 11 10 0 21 20 9 26 -15 5 -21 11 -24 28 -19 36 11 45 34 21 54 -24
20 -17 30 23 31 20 0 33 2 27 4 -22 7 -101 11 -122 6z"/>
<path d="M420 735 c0 -8 7 -15 15 -15 9 0 12 6 9 15 -4 8 -10 15 -15 15 -5 0
-9 -7 -9 -15z"/>
<path d="M650 740 c0 -5 7 -10 15 -10 8 0 15 5 15 10 0 6 -7 10 -15 10 -8 0
-15 -4 -15 -10z"/>
<path d="M505 662 c-4 -29 -5 -55 -3 -58 3 -2 18 -1 35 2 58 12 70 84 13 84
-16 0 -30 6 -33 13 -2 6 -7 -12 -12 -41z"/>
<path d="M758 652 c-3 -11 -2 -26 3 -33 6 -10 9 -11 9 -1 0 6 12 12 26 12 19
0 25 5 22 18 -5 25 -54 29 -60 4z"/>
<path d="M120 563 c0 -11 11 -32 25 -47 14 -15 23 -31 20 -36 -3 -4 2 -13 10
-20 8 -7 15 -20 15 -29 0 -9 4 -21 9 -27 5 -5 14 -27 21 -49 12 -37 45 -75
116 -134 16 -13 38 -31 48 -40 12 -10 9 -1 -8 21 -16 21 -34 38 -42 38 -19 0
-45 43 -72 119 -34 96 -35 106 -18 120 20 17 20 26 0 45 -22 23 -34 20 -34 -9
0 -14 -4 -25 -10 -25 -5 0 -10 4 -10 9 0 5 -16 26 -35 47 -30 32 -35 35 -35
17z"/>
<path d="M760 461 c0 -9 55 -71 63 -71 3 0 28 -22 55 -49 28 -27 60 -52 71
-56 12 -3 21 -11 21 -16 0 -5 6 -9 14 -9 8 0 16 -5 18 -11 2 -7 11 -7 28 0 18
7 20 10 8 10 -10 1 -18 5 -18 10 0 5 -14 11 -31 15 -37 7 -139 107 -159 155
-10 25 -18 31 -41 31 -16 0 -29 -4 -29 -9z"/>
<path d="M631 288 c1 -13 5 -34 9 -48 7 -21 8 -19 9 17 1 23 -3 45 -9 48 -6 3
-10 -4 -9 -17z"/>
<path d="M140 154 c0 -44 15 -59 47 -47 14 5 13 8 -5 14 -12 5 -22 16 -22 26
0 10 -5 25 -10 33 -7 11 -10 4 -10 -26z"/>
<path d="M642 145 c-1 -16 5 -39 13 -49 8 -11 15 -15 15 -10 0 6 -4 14 -9 19
-5 6 -11 24 -14 40 l-4 30 -1 -30z"/>
<path d="M421 144 c0 -11 3 -14 6 -6 3 7 2 16 -1 19 -3 4 -6 -2 -5 -13z"/>
<path d="M480 110 c-8 -5 -10 -10 -5 -10 6 0 17 5 25 10 8 5 11 10 5 10 -5 0
-17 -5 -25 -10z"/>
</g>
</svg>
