<?xml version="1.0" standalone="no"?>
<!DOCTYPE svg PUBLIC "-//W3C//DTD SVG 20010904//EN"
 "http://www.w3.org/TR/2001/REC-SVG-20010904/DTD/svg10.dtd">
<svg version="1.0" xmlns="http://www.w3.org/2000/svg"
 width="112.000000pt" height="112.000000pt" viewBox="0 0 112.000000 112.000000"
 preserveAspectRatio="xMidYMid meet">
<metadata>
Created by potrace 1.16, written by Peter Selinger 2001-2019
</metadata>
<g transform="translate(0.000000,112.000000) scale(0.100000,-0.100000)"
fill="#FFFFFF" stroke="none">
<path d="M944 947 c-8 -18 -7 -26 4 -37 13 -12 12 -15 -3 -26 -10 -7 -21 -11
-25 -9 -13 8 -27 -18 -32 -57 -4 -41 9 -50 36 -23 18 18 66 20 66 3 0 -7 5
-20 10 -28 9 -13 11 -13 21 0 9 13 10 13 6 -1 -3 -9 -1 -22 4 -30 6 -10 9 -10
9 -1 0 6 7 12 15 12 20 0 19 3 -9 44 -36 53 -53 68 -59 52 -3 -7 -14 -15 -24
-18 -16 -4 -18 -1 -15 23 3 20 8 26 20 22 9 -4 13 -2 9 4 -4 6 -1 14 5 16 10
4 10 6 1 6 -7 1 -13 8 -13 16 0 10 10 15 30 15 23 0 30 4 30 20 0 16 -7 20
-37 20 -30 0 -40 -5 -49 -23z"/>
<path d="M146 858 c-14 -18 -24 -34 -22 -36 6 -5 56 21 56 30 0 4 4 8 10 8 5
0 9 -10 7 -22 -3 -27 21 -34 48 -14 17 12 18 18 8 35 -10 15 -10 21 0 24 7 3
-9 6 -35 6 -41 1 -50 -3 -72 -31z"/>
<path d="M298 873 c7 -3 16 -2 19 1 4 3 -2 6 -13 5 -11 0 -14 -3 -6 -6z"/>
<path d="M483 833 c9 -2 23 -2 30 0 6 3 -1 5 -18 5 -16 0 -22 -2 -12 -5z"/>
<path d="M708 823 c6 -2 18 -2 25 0 6 3 1 5 -13 5 -14 0 -19 -2 -12 -5z"/>
<path d="M540 771 c-20 -24 -40 -59 -40 -71 0 -19 61 -10 84 13 37 35 40 56
10 67 -32 13 -36 12 -54 -9z"/>
<path d="M800 734 c0 -12 -9 -31 -20 -44 -11 -13 -20 -27 -20 -32 0 -8 65 -1
83 9 14 8 7 54 -10 60 -10 4 -21 11 -25 17 -5 6 -8 2 -8 -10z"/>
<path d="M127 724 c-4 -4 -7 -17 -7 -30 0 -12 -6 -25 -12 -27 -10 -4 -9 -8 2
-17 11 -9 12 -13 3 -17 -7 -2 -13 -18 -13 -35 0 -17 -11 -54 -24 -82 -20 -43
-25 -71 -28 -156 -3 -102 -2 -105 20 -108 16 -3 22 2 22 15 0 15 -2 15 -9 4
-18 -28 -24 38 -11 114 10 58 19 81 45 111 19 21 36 50 39 65 3 16 14 30 26
34 28 9 46 43 30 59 -9 8 -18 3 -38 -21 l-27 -31 1 51 c1 53 -7 83 -19 71z"/>
<path d="M635 480 c-3 -5 -8 -41 -11 -78 -13 -190 -14 -182 6 -182 18 0 40
-44 40 -80 0 -10 7 -20 15 -24 8 -3 15 -1 15 4 0 6 -4 10 -8 10 -20 0 -35 110
-29 211 3 57 7 113 9 124 3 21 -26 33 -37 15z m12 -237 c-3 -10 -5 -4 -5 12 0
17 2 24 5 18 2 -7 2 -21 0 -30z"/>
<path d="M162 260 c0 -14 2 -19 5 -12 2 6 2 18 0 25 -3 6 -5 1 -5 -13z"/>
<path d="M177 185 c6 -46 16 -64 36 -65 4 0 7 11 7 25 0 14 -5 25 -10 25 -6 0
-17 15 -25 33 -14 32 -14 32 -8 -18z"/>
</g>
</svg>
