<?xml version="1.0" standalone="no"?>
<!DOCTYPE svg PUBLIC "-//W3C//DTD SVG 20010904//EN"
 "http://www.w3.org/TR/2001/REC-SVG-20010904/DTD/svg10.dtd">
<svg version="1.0" xmlns="http://www.w3.org/2000/svg"
 width="112.000000pt" height="112.000000pt" viewBox="0 0 112.000000 112.000000"
 preserveAspectRatio="xMidYMid meet">
<metadata>
Created by potrace 1.16, written by Peter Selinger 2001-2019
</metadata>
<g transform="translate(0.000000,112.000000) scale(0.100000,-0.100000)"
fill="#FFFFFF" stroke="none">
<path d="M740 1032 c0 -7 -11 -12 -25 -12 -15 0 -25 -6 -25 -14 0 -9 7 -12 20
-9 23 6 46 31 36 40 -3 3 -6 1 -6 -5z"/>
<path d="M709 973 c0 -10 -1 -32 -2 -50 -1 -17 0 -30 3 -28 3 2 12 0 20 -5 11
-7 12 -13 1 -37 -9 -19 -9 -29 -2 -31 6 -2 11 -8 11 -14 0 -32 98 -60 108 -30
2 7 17 12 33 12 32 0 37 11 14 30 -8 7 -15 21 -15 31 0 11 -9 27 -20 36 -26
22 -25 31 3 55 l22 20 -30 -6 c-92 -17 -108 -19 -101 -7 4 6 1 11 -8 11 -9 0
-16 7 -16 15 0 21 -20 19 -21 -2z m111 -173 c0 -5 -6 -10 -12 -10 -9 0 -8 -4
2 -11 12 -9 12 -10 -3 -5 -10 3 -23 6 -28 6 -14 0 14 29 29 30 6 0 12 -4 12
-10z"/>
<path d="M891 974 c0 -11 3 -14 6 -6 3 7 2 16 -1 19 -3 4 -6 -2 -5 -13z"/>
<path d="M670 818 c0 -49 6 -47 14 5 3 22 2 37 -4 37 -6 0 -10 -19 -10 -42z"/>
<path d="M602 794 c-7 -8 -8 -14 -3 -14 10 0 25 19 20 25 -2 1 -10 -3 -17 -11z"/>
<path d="M468 762 c-28 -17 -36 -32 -18 -32 6 0 10 3 10 8 0 4 12 15 28 24 15
10 23 17 17 17 -5 0 -22 -7 -37 -17z"/>
<path d="M343 759 c-18 -5 -33 -13 -34 -17 -7 -49 -6 -81 2 -77 5 4 9 19 9 36
0 19 5 29 15 29 8 0 15 4 15 9 0 4 15 13 33 19 41 13 5 14 -40 1z"/>
<path d="M438 653 c-9 -21 -19 -48 -23 -60 -6 -20 -4 -22 17 -14 25 9 52 70
42 96 -10 24 -19 18 -36 -22z"/>
<path d="M610 654 c0 -9 -9 -32 -21 -50 -17 -29 -18 -34 -5 -34 9 0 16 5 16
10 0 6 9 10 20 10 17 0 20 7 20 40 0 29 -4 40 -15 40 -8 0 -15 -7 -15 -16z"/>
<path d="M705 357 c3 -21 15 -55 25 -75 10 -21 24 -50 30 -65 7 -19 16 -27 27
-25 26 5 28 35 3 43 -12 4 -26 20 -32 36 -5 16 -14 29 -19 29 -5 0 -9 10 -9
23 -1 12 -8 33 -16 47 -15 25 -15 24 -9 -13z"/>
<path d="M287 171 c-7 -34 6 -57 25 -45 11 7 10 34 -1 34 -5 0 -11 10 -13 23
-3 18 -5 15 -11 -12z"/>
<path d="M528 135 c-6 -53 9 -115 29 -115 16 0 18 27 2 32 -6 2 -11 26 -11 54
1 68 -14 89 -20 29z"/>
</g>
</svg>
