<?xml version="1.0" standalone="no"?>
<!DOCTYPE svg PUBLIC "-//W3C//DTD SVG 20010904//EN"
 "http://www.w3.org/TR/2001/REC-SVG-20010904/DTD/svg10.dtd">
<svg version="1.0" xmlns="http://www.w3.org/2000/svg"
 width="112.000000pt" height="112.000000pt" viewBox="0 0 112.000000 112.000000"
 preserveAspectRatio="xMidYMid meet">
<metadata>
Created by potrace 1.16, written by Peter Selinger 2001-2019
</metadata>
<g transform="translate(0.000000,112.000000) scale(0.100000,-0.100000)"
fill="#FFFFFF" stroke="none">
<path d="M915 880 c-4 -19 -2 -36 5 -45 19 -22 27 -18 26 13 -1 24 3 27 37 30
24 2 37 8 37 18 0 10 -13 14 -49 14 -47 0 -50 -2 -56 -30z m25 -30 c0 -5 -4
-10 -10 -10 -5 0 -10 5 -10 10 0 6 5 10 10 10 6 0 10 -4 10 -10z"/>
<path d="M135 806 c-9 -13 -25 -26 -36 -29 -12 -3 -18 -10 -14 -16 4 -8 15 -6
35 4 37 19 60 19 60 0 0 -18 36 -20 47 -2 4 6 8 24 8 40 0 25 -3 27 -42 27
-34 0 -46 -5 -58 -24z"/>
<path d="M873 818 c-6 -7 -11 -26 -11 -41 0 -26 3 -28 32 -22 17 4 39 9 49 12
13 3 20 -2 24 -16 5 -19 68 -49 79 -38 3 3 -11 20 -30 39 -20 19 -36 40 -36
46 0 6 -5 14 -12 18 -7 5 -8 3 -3 -6 4 -7 2 -16 -6 -21 -21 -13 -27 -11 -31
14 -3 25 -39 35 -55 15z"/>
<path d="M460 780 c0 -5 7 -10 15 -10 8 0 15 5 15 10 0 6 -7 10 -15 10 -8 0
-15 -4 -15 -10z"/>
<path d="M688 773 c7 -3 16 -2 19 1 4 3 -2 6 -13 5 -11 0 -14 -3 -6 -6z"/>
<path d="M522 699 c-13 -28 -22 -53 -19 -55 2 -3 23 -2 46 2 33 5 45 12 52 32
12 31 5 52 -16 52 -8 0 -15 5 -15 10 0 28 -28 4 -48 -41z"/>
<path d="M1000 700 c0 -5 5 -10 10 -10 6 0 10 5 10 10 0 6 -4 10 -10 10 -5 0
-10 -4 -10 -10z"/>
<path d="M790 676 c0 -8 -7 -16 -15 -20 -8 -3 -15 -15 -15 -26 0 -19 2 -20 15
-7 8 9 23 13 34 10 23 -6 34 10 26 37 -7 23 -45 28 -45 6z"/>
<path d="M126 593 c5 -32 8 -92 6 -134 -2 -64 3 -91 29 -165 17 -49 36 -95 41
-101 12 -15 38 -17 38 -3 0 6 -6 10 -13 10 -33 0 -79 158 -58 198 6 12 13 45
14 73 3 40 9 57 26 70 23 19 25 49 4 56 -6 2 -18 -7 -25 -22 l-14 -26 -18 51
c-25 69 -41 65 -30 -7z"/>
<path d="M684 456 c-4 -9 -1 -35 5 -59 7 -23 16 -56 20 -73 5 -18 16 -46 25
-64 9 -18 16 -39 16 -47 0 -7 9 -13 20 -13 11 0 20 7 20 15 0 8 -4 15 -10 15
-5 0 -17 15 -26 33 -15 28 -22 68 -27 172 -2 33 -33 48 -43 21z"/>
<path d="M638 318 c-3 -7 -1 -40 2 -73 l7 -60 2 73 c1 69 -2 86 -11 60z"/>
<path d="M150 210 c0 -16 4 -30 8 -30 5 0 7 14 4 30 -2 17 -6 30 -8 30 -2 0
-4 -13 -4 -30z"/>
<path d="M651 160 c0 -14 8 -38 19 -55 11 -16 20 -25 20 -20 0 6 -5 16 -11 22
-6 6 -15 26 -19 45 -7 27 -8 29 -9 8z"/>
<path d="M162 133 c2 -20 9 -29 26 -31 25 -4 30 13 7 22 -8 3 -15 12 -15 21 0
8 -5 15 -11 15 -6 0 -9 -12 -7 -27z"/>
</g>
</svg>
