<?xml version="1.0" standalone="no"?>
<!DOCTYPE svg PUBLIC "-//W3C//DTD SVG 20010904//EN"
 "http://www.w3.org/TR/2001/REC-SVG-20010904/DTD/svg10.dtd">
<svg version="1.0" xmlns="http://www.w3.org/2000/svg"
 width="112.000000pt" height="112.000000pt" viewBox="0 0 112.000000 112.000000"
 preserveAspectRatio="xMidYMid meet">
<metadata>
Created by potrace 1.16, written by Peter Selinger 2001-2019
</metadata>
<g transform="translate(0.000000,112.000000) scale(0.100000,-0.100000)"
fill="#FFFFFF" stroke="none">
<path d="M693 993 c-14 -5 -18 -43 -5 -43 13 0 28 15 35 33 6 17 -5 21 -30 10z"/>
<path d="M692 910 c2 -22 9 -35 20 -38 21 -5 22 -15 8 -43 -16 -29 27 -69 65
-61 18 3 26 1 21 -6 -4 -6 2 -8 14 -5 11 3 23 9 26 14 3 5 14 9 26 9 19 0 20
1 4 25 -9 13 -16 31 -16 39 0 8 -9 21 -21 29 -17 13 -19 18 -9 37 11 20 9 21
-37 19 -26 -1 -60 2 -76 6 -26 7 -27 6 -25 -25z m98 0 c0 -5 -4 -10 -10 -10
-5 0 -10 5 -10 10 0 6 5 10 10 10 6 0 10 -4 10 -10z m7 -126 c-3 -3 -12 -4
-19 -1 -8 3 -5 6 6 6 11 1 17 -2 13 -5z"/>
<path d="M662 800 c0 -19 2 -27 5 -17 2 9 2 25 0 35 -3 9 -5 1 -5 -18z"/>
<path d="M446 729 c-11 -10 -16 -19 -12 -19 14 0 46 21 46 30 0 15 -13 11 -34
-11z"/>
<path d="M324 719 c-31 -9 -46 -37 -36 -67 7 -21 22 -2 22 27 0 23 6 29 38 38
20 6 30 11 22 11 -8 0 -29 -4 -46 -9z"/>
<path d="M433 638 c-24 -51 -33 -81 -28 -86 10 -11 65 58 65 83 0 31 -23 33
-37 3z"/>
<path d="M610 640 c0 -12 -10 -34 -22 -50 -12 -16 -18 -33 -13 -37 4 -5 10 -2
12 5 3 7 16 17 29 22 24 9 30 32 18 64 -9 23 -24 20 -24 -4z"/>
<path d="M740 410 c0 -11 5 -20 10 -20 6 0 10 -7 10 -15 0 -8 6 -15 12 -15 7
0 41 -30 75 -66 43 -45 68 -64 79 -60 16 6 11 26 -7 26 -10 0 -129 115 -129
124 0 7 -38 46 -45 46 -3 0 -5 -9 -5 -20z"/>
<path d="M570 272 c0 -26 29 -82 47 -89 26 -10 26 6 -1 47 -14 22 -26 44 -26
50 0 5 -4 10 -10 10 -5 0 -10 -8 -10 -18z"/>
<path d="M277 181 c-3 -14 0 -21 9 -21 16 0 18 9 5 28 -6 10 -10 9 -14 -7z"/>
<path d="M526 159 c-3 -19 -4 -45 -2 -59 2 -14 4 -33 5 -42 0 -10 5 -18 10
-18 5 0 9 29 9 64 0 74 -14 108 -22 55z"/>
</g>
</svg>
