<?xml version="1.0" standalone="no"?>
<!DOCTYPE svg PUBLIC "-//W3C//DTD SVG 20010904//EN"
 "http://www.w3.org/TR/2001/REC-SVG-20010904/DTD/svg10.dtd">
<svg version="1.0" xmlns="http://www.w3.org/2000/svg"
 width="112.000000pt" height="112.000000pt" viewBox="0 0 112.000000 112.000000"
 preserveAspectRatio="xMidYMid meet">
<metadata>
Created by potrace 1.16, written by Peter Selinger 2001-2019
</metadata>
<g transform="translate(0.000000,112.000000) scale(0.100000,-0.100000)"
fill="#FFFFFF" stroke="none">
<path d="M711 1038 c0 -13 3 -17 6 -10 2 6 11 12 18 12 8 0 17 5 20 10 4 6 -5
10 -19 10 -21 0 -26 -5 -25 -22z"/>
<path d="M724 994 c-4 -17 -2 -29 7 -35 12 -7 11 -9 -1 -9 -10 0 -7 -7 10 -19
22 -18 23 -22 11 -44 -8 -14 -10 -34 -6 -47 6 -20 12 -22 49 -17 35 5 38 4 19
-5 -28 -14 -29 -24 -3 -38 14 -7 20 -7 20 0 0 5 7 10 15 10 8 0 15 7 15 15 0
10 10 15 29 15 29 0 30 0 15 28 -7 15 -14 36 -14 47 0 11 -10 26 -22 34 -19
12 -20 14 -5 23 9 5 17 15 17 23 0 8 8 19 18 25 14 9 12 10 -13 6 -54 -10 -99
-9 -127 2 -25 10 -28 9 -34 -14z m46 -19 c0 -8 -4 -15 -10 -15 -5 0 -10 7 -10
15 0 8 5 15 10 15 6 0 10 -7 10 -15z m47 -7 c-3 -8 -6 -5 -6 6 -1 11 2 17 5
13 3 -3 4 -12 1 -19z m13 -168 c0 -5 -4 -10 -10 -10 -5 0 -10 5 -10 10 0 6 5
10 10 10 6 0 10 -4 10 -10z"/>
<path d="M681 974 c0 -11 3 -14 6 -6 3 7 2 16 -1 19 -3 4 -6 -2 -5 -13z"/>
<path d="M692 890 c-1 -19 -5 -46 -8 -60 -5 -21 -4 -23 6 -7 6 9 9 36 7 60 -3
39 -4 39 -5 7z"/>
<path d="M610 820 c-9 -6 -10 -10 -3 -10 6 0 15 5 18 10 8 12 4 12 -15 0z"/>
<path d="M380 801 c0 -5 -15 -15 -34 -21 -40 -13 -48 -28 -36 -67 8 -28 8 -28
15 13 6 37 10 41 51 52 45 12 60 32 24 32 -11 0 -20 -4 -20 -9z"/>
<path d="M490 802 c0 -5 -11 -15 -25 -22 -14 -7 -23 -15 -21 -17 7 -7 66 27
66 37 0 6 -4 10 -10 10 -5 0 -10 -4 -10 -8z"/>
<path d="M450 697 c0 -13 -4 -27 -9 -32 -4 -6 -13 -25 -19 -43 -11 -32 -10
-33 11 -26 12 3 22 7 22 8 0 0 6 11 13 23 18 33 16 93 -3 93 -9 0 -15 -9 -15
-23z"/>
<path d="M620 683 c0 -14 -6 -34 -14 -42 -7 -9 -17 -26 -20 -38 -6 -18 -4 -22
8 -17 9 3 16 10 16 14 0 4 8 7 18 6 19 -1 28 39 18 80 -8 32 -26 30 -26 -3z"/>
<path d="M678 365 c-11 -18 23 -175 37 -175 24 0 26 19 6 39 -11 11 -22 40
-26 68 -3 26 -7 55 -8 63 -2 9 -5 11 -9 5z"/>
<path d="M470 316 c0 -14 5 -28 11 -31 15 -10 18 -4 12 28 -7 34 -23 36 -23 3z"/>
<path d="M525 328 c-3 -7 -1 -26 4 -43 9 -29 9 -29 10 13 1 41 -5 54 -14 30z"/>
<path d="M290 163 c0 -24 5 -43 10 -43 19 0 21 26 5 56 l-15 29 0 -42z"/>
<path d="M538 180 c-9 -30 -10 -107 -2 -137 7 -26 34 -32 34 -8 0 8 -4 15 -10
15 -5 0 -10 35 -12 78 -2 52 -5 69 -10 52z"/>
</g>
</svg>
