<?xml version="1.0" standalone="no"?>
<!DOCTYPE svg PUBLIC "-//W3C//DTD SVG 20010904//EN"
 "http://www.w3.org/TR/2001/REC-SVG-20010904/DTD/svg10.dtd">
<svg version="1.0" xmlns="http://www.w3.org/2000/svg"
 width="112.000000pt" height="112.000000pt" viewBox="0 0 112.000000 112.000000"
 preserveAspectRatio="xMidYMid meet">
<metadata>
Created by potrace 1.16, written by Peter Selinger 2001-2019
</metadata>
<g transform="translate(0.000000,112.000000) scale(0.100000,-0.100000)"
fill="#FFFFFF" stroke="none">
<path d="M677 968 c-4 -12 -5 -24 -2 -26 8 -8 45 19 45 33 0 24 -37 18 -43 -7z"/>
<path d="M685 923 c-3 -9 -1 -21 4 -26 7 -7 7 -15 0 -23 -8 -10 -6 -12 11 -9
21 4 22 2 16 -35 -8 -50 17 -81 58 -73 22 5 25 2 20 -13 -3 -11 -2 -15 3 -9
13 16 51 35 71 35 18 0 17 4 -6 51 -14 28 -31 53 -38 56 -9 3 -5 12 13 29 l26
24 -49 -7 c-27 -3 -52 -11 -56 -17 -5 -7 -11 -6 -20 5 -20 24 -45 30 -53 12z
m105 -147 c0 -2 -9 -6 -20 -9 -11 -3 -18 -1 -14 4 5 9 34 13 34 5z"/>
<path d="M662 810 c0 -14 2 -19 5 -12 2 6 2 18 0 25 -3 6 -5 1 -5 -13z"/>
<path d="M480 743 c0 -5 -11 -15 -25 -21 -14 -6 -25 -16 -25 -22 0 -8 4 -8 13
0 6 6 21 17 32 25 11 7 17 17 12 21 -4 4 -7 3 -7 -3z"/>
<path d="M333 718 c-20 -7 -33 -18 -35 -32 -5 -27 1 -48 12 -41 5 3 7 12 4 20
-8 19 13 38 56 52 19 6 26 11 15 11 -11 0 -34 -5 -52 -10z"/>
<path d="M426 610 c-19 -49 -20 -71 -3 -64 18 7 47 58 47 83 0 35 -27 23 -44
-19z"/>
<path d="M602 624 c-1 -14 -9 -32 -17 -40 -17 -18 -20 -44 -5 -44 6 0 13 7 16
15 4 8 12 15 19 15 17 0 23 19 16 49 -9 34 -26 37 -29 5z"/>
<path d="M724 397 c-5 -15 9 -35 71 -101 17 -17 42 -47 57 -65 25 -31 28 -32
43 -17 15 14 13 17 -19 33 -20 9 -36 21 -36 26 0 5 -10 20 -22 33 -60 61 -68
71 -68 81 0 19 -20 26 -26 10z"/>
<path d="M550 265 c0 -14 4 -25 10 -25 5 0 12 -11 16 -24 3 -14 13 -27 22 -31
29 -11 32 11 7 45 -14 19 -25 40 -25 47 0 7 -7 13 -15 13 -9 0 -15 -9 -15 -25z"/>
<path d="M287 168 c-10 -34 -9 -38 8 -38 16 0 20 27 6 48 -6 10 -10 8 -14 -10z"/>
<path d="M527 164 c-8 -23 -3 -132 7 -141 12 -13 14 4 7 82 -4 53 -9 73 -14
59z"/>
</g>
</svg>
