<?xml version="1.0" standalone="no"?>
<!DOCTYPE svg PUBLIC "-//W3C//DTD SVG 20010904//EN"
 "http://www.w3.org/TR/2001/REC-SVG-20010904/DTD/svg10.dtd">
<svg version="1.0" xmlns="http://www.w3.org/2000/svg"
 width="112.000000pt" height="112.000000pt" viewBox="0 0 112.000000 112.000000"
 preserveAspectRatio="xMidYMid meet">
<metadata>
Created by potrace 1.16, written by Peter Selinger 2001-2019
</metadata>
<g transform="translate(0.000000,112.000000) scale(0.100000,-0.100000)"
fill="#FFFFFF" stroke="none">
<path d="M890 871 c0 -5 -8 -17 -17 -27 -17 -16 -15 -17 22 -10 58 11 77 46
25 46 -16 0 -30 -4 -30 -9z"/>
<path d="M865 813 c-11 -3 -23 -10 -27 -17 -11 -17 -10 -66 2 -66 6 0 10 4 10
9 0 12 48 23 70 16 11 -3 22 -15 25 -26 4 -10 11 -16 17 -13 7 4 8 2 4 -4 -7
-12 10 -52 22 -52 17 1 37 20 26 28 -5 4 -26 28 -45 53 -29 39 -37 44 -52 35
-14 -8 -20 -8 -27 4 -5 8 -9 20 -9 25 0 6 3 4 6 -2 5 -15 33 -18 33 -4 0 7
-28 24 -33 20 -1 -1 -11 -4 -22 -6z"/>
<path d="M121 765 c-36 -12 -73 -58 -65 -79 6 -15 8 -14 23 3 22 25 71 39 71
20 0 -8 4 -21 10 -29 7 -12 12 -10 29 9 24 27 24 30 11 51 -8 12 -3 16 23 21
28 4 25 6 -21 10 -29 2 -65 0 -81 -6z"/>
<path d="M420 740 c0 -5 9 -10 20 -10 11 0 20 5 20 10 0 6 -9 10 -20 10 -11 0
-20 -4 -20 -10z"/>
<path d="M630 740 c0 -5 7 -10 15 -10 8 0 15 5 15 10 0 6 -7 10 -15 10 -8 0
-15 -4 -15 -10z"/>
<path d="M515 691 c3 -11 1 -22 -5 -26 -12 -8 -13 -65 -1 -65 5 0 16 7 25 15
8 8 22 15 31 15 20 0 29 23 21 55 -5 21 -12 25 -42 25 -30 0 -34 -3 -29 -19z"/>
<path d="M763 673 c3 -12 0 -24 -6 -26 -7 -2 -7 -9 1 -23 6 -10 12 -13 12 -6
0 6 12 12 26 12 19 0 25 5 22 17 -2 10 -12 19 -23 22 -11 2 -24 8 -28 15 -5 6
-7 2 -4 -11z"/>
<path d="M127 583 c-13 -12 -7 -33 13 -50 11 -10 20 -23 20 -31 0 -7 9 -30 20
-50 11 -20 25 -57 31 -81 6 -26 24 -58 46 -80 19 -20 46 -49 59 -65 14 -16 27
-26 30 -23 3 3 -10 21 -28 40 -52 55 -55 61 -62 108 -4 24 -12 57 -18 72 -8
21 -8 39 1 69 10 33 10 42 -1 49 -21 14 -28 11 -28 -11 0 -11 -4 -20 -8 -20
-12 0 -42 34 -42 47 0 14 -25 34 -33 26z"/>
<path d="M750 454 c0 -14 22 -44 34 -44 2 0 34 -28 69 -62 93 -92 115 -108
135 -100 16 6 16 7 0 10 -10 2 -18 7 -18 10 0 4 -15 15 -32 25 -40 22 -128
131 -128 158 0 14 -7 19 -30 19 -21 0 -30 -5 -30 -16z"/>
<path d="M638 303 c-2 -5 -1 -30 3 -58 l6 -50 1 58 c2 52 -2 69 -10 50z"/>
<path d="M142 188 c1 -69 16 -96 44 -80 17 10 18 11 1 12 -20 0 -25 10 -37 76
l-8 49 0 -57z"/>
<path d="M642 155 c-1 -16 6 -41 14 -55 10 -16 13 -18 8 -5 -4 11 -10 36 -14
55 -8 34 -8 34 -8 5z"/>
<path d="M428 118 c5 -5 19 -4 33 1 23 10 22 10 -8 8 -18 0 -29 -5 -25 -9z"/>
</g>
</svg>
