<?xml version="1.0" standalone="no"?>
<!DOCTYPE svg PUBLIC "-//W3C//DTD SVG 20010904//EN"
 "http://www.w3.org/TR/2001/REC-SVG-20010904/DTD/svg10.dtd">
<svg version="1.0" xmlns="http://www.w3.org/2000/svg"
 width="112.000000pt" height="112.000000pt" viewBox="0 0 112.000000 112.000000"
 preserveAspectRatio="xMidYMid meet">
<metadata>
Created by potrace 1.16, written by Peter Selinger 2001-2019
</metadata>
<g transform="translate(0.000000,112.000000) scale(0.100000,-0.100000)"
fill="#FFFFFF" stroke="none">
<path d="M668 955 c-3 -14 -1 -25 5 -25 5 0 7 -9 4 -20 -3 -11 -1 -20 4 -20 5
0 9 -7 9 -15 0 -8 4 -15 9 -15 16 0 21 -30 9 -50 -19 -30 6 -51 52 -44 37 6
38 5 36 -20 l-3 -27 19 21 c11 11 31 20 48 20 l29 0 -24 36 c-14 20 -25 43
-25 50 0 7 -7 17 -16 22 -14 8 -14 10 0 21 9 8 16 17 16 22 0 12 -27 12 -32 0
-1 -5 -22 -11 -45 -15 -34 -4 -41 -3 -36 9 3 10 -1 15 -15 15 -26 0 -37 16
-17 24 22 8 19 36 -4 36 -12 0 -20 -9 -23 -25z"/>
<path d="M651 764 c0 -11 3 -14 6 -6 3 7 2 16 -1 19 -3 4 -6 -2 -5 -13z"/>
<path d="M575 749 c-4 -6 -5 -12 -2 -15 2 -3 7 2 10 11 7 17 1 20 -8 4z"/>
<path d="M458 719 c-10 -5 -18 -15 -18 -22 0 -8 3 -9 8 -1 4 6 16 16 27 22 11
6 16 11 10 11 -5 0 -18 -4 -27 -10z"/>
<path d="M346 713 c-28 -7 -48 -31 -52 -59 -3 -34 12 -30 20 6 4 21 11 30 26
30 11 0 20 4 20 9 0 5 8 12 18 14 11 3 12 5 2 5 -8 0 -24 -3 -34 -5z"/>
<path d="M430 631 c0 -10 -7 -35 -16 -56 -14 -35 -14 -37 1 -31 9 3 20 6 24 6
4 0 13 19 20 41 10 34 10 43 -1 50 -20 13 -28 11 -28 -10z"/>
<path d="M600 617 c0 -13 -7 -30 -15 -37 -8 -7 -15 -22 -15 -34 l1 -21 18 23
c11 12 24 22 31 22 7 0 10 13 8 32 -4 38 -28 51 -28 15z"/>
<path d="M730 402 c0 -15 31 -52 45 -52 7 0 17 -9 20 -20 3 -11 11 -20 16 -20
5 0 28 -20 51 -45 41 -44 70 -56 83 -35 3 6 -1 10 -9 10 -8 0 -28 12 -43 26
-15 14 -35 31 -44 38 -8 6 -26 27 -40 46 -13 19 -31 40 -39 47 -17 14 -40 17
-40 5z"/>
<path d="M550 271 c0 -10 6 -21 14 -24 8 -3 22 -22 31 -41 13 -27 24 -36 42
-36 24 0 24 0 -11 48 -49 65 -55 72 -66 72 -6 0 -10 -9 -10 -19z"/>
<path d="M294 172 c4 -7 2 -12 -3 -12 -6 0 -11 -7 -11 -15 0 -8 7 -15 15 -15
18 0 20 36 3 46 -7 4 -8 3 -4 -4z"/>
<path d="M526 157 c-13 -45 1 -153 18 -136 2 2 1 40 -3 84 -6 64 -9 75 -15 52z"/>
</g>
</svg>
