<?xml version="1.0" standalone="no"?>
<!DOCTYPE svg PUBLIC "-//W3C//DTD SVG 20010904//EN"
 "http://www.w3.org/TR/2001/REC-SVG-20010904/DTD/svg10.dtd">
<svg version="1.0" xmlns="http://www.w3.org/2000/svg"
 width="112.000000pt" height="112.000000pt" viewBox="0 0 112.000000 112.000000"
 preserveAspectRatio="xMidYMid meet">
<metadata>
Created by potrace 1.16, written by Peter Selinger 2001-2019
</metadata>
<g transform="translate(0.000000,112.000000) scale(0.100000,-0.100000)"
fill="#FFFFFF" stroke="none">
<path d="M680 976 c0 -19 4 -23 19 -19 11 3 21 13 24 24 4 15 0 19 -19 19 -19
0 -24 -5 -24 -24z"/>
<path d="M699 941 c-6 -46 -3 -62 13 -67 20 -6 22 -17 8 -43 -24 -46 73 -85
140 -57 26 11 27 13 14 36 -7 14 -13 33 -14 42 0 10 -10 22 -21 29 -12 6 -18
14 -13 18 5 3 15 14 23 24 14 17 13 18 -20 13 -79 -14 -89 -14 -84 -7 2 5 -6
11 -20 13 -14 3 -25 2 -26 -1z m98 -157 c-3 -3 -12 -4 -19 -1 -8 3 -5 6 6 6
11 1 17 -2 13 -5z"/>
<path d="M640 910 c0 -5 5 -10 10 -10 6 0 10 5 10 10 0 6 -4 10 -10 10 -5 0
-10 -4 -10 -10z"/>
<path d="M663 792 c-1 -22 0 -24 9 -8 6 10 6 22 2 26 -5 5 -10 -3 -11 -18z"/>
<path d="M596 775 c-11 -8 -15 -15 -9 -15 6 0 16 7 23 15 16 19 11 19 -14 0z"/>
<path d="M466 744 c-30 -29 -19 -33 14 -4 13 11 18 20 12 20 -6 0 -18 -7 -26
-16z"/>
<path d="M780 753 c8 -3 18 -11 22 -17 5 -7 8 -4 8 7 0 11 -7 17 -22 16 -16 0
-18 -2 -8 -6z"/>
<path d="M360 741 c0 -5 -13 -12 -30 -16 -26 -6 -30 -11 -30 -41 0 -23 4 -33
11 -28 6 3 8 17 5 30 -6 21 -2 25 39 35 46 12 61 29 25 29 -11 0 -20 -4 -20
-9z"/>
<path d="M425 609 c-9 -28 -14 -53 -11 -56 3 -4 6 -1 6 5 0 7 7 12 15 12 18 0
35 31 35 64 0 45 -27 30 -45 -25z"/>
<path d="M610 642 c0 -13 -9 -35 -20 -49 -24 -30 -26 -55 -5 -47 8 4 15 12 15
20 0 8 9 14 20 14 24 0 27 36 5 66 -14 18 -14 18 -15 -4z"/>
<path d="M715 390 c-3 -6 3 -23 14 -39 12 -16 21 -33 21 -38 0 -4 16 -23 35
-42 19 -18 37 -42 40 -52 7 -21 45 -26 45 -6 0 6 -14 20 -30 29 -17 9 -30 24
-30 32 0 8 -9 21 -19 28 -10 7 -29 32 -41 56 -24 45 -26 47 -35 32z"/>
<path d="M550 259 c0 -33 19 -59 44 -59 21 0 20 10 -4 40 -11 14 -20 31 -20
38 0 27 -20 10 -20 -19z"/>
<path d="M287 171 c-4 -20 -3 -39 3 -45 14 -14 21 14 12 49 l-8 30 -7 -34z"/>
<path d="M526 157 c-8 -28 -2 -124 8 -135 13 -13 15 8 7 84 -6 63 -9 73 -15
51z"/>
</g>
</svg>
