<?xml version="1.0" standalone="no"?>
<!DOCTYPE svg PUBLIC "-//W3C//DTD SVG 20010904//EN"
 "http://www.w3.org/TR/2001/REC-SVG-20010904/DTD/svg10.dtd">
<svg version="1.0" xmlns="http://www.w3.org/2000/svg"
 width="112.000000pt" height="112.000000pt" viewBox="0 0 112.000000 112.000000"
 preserveAspectRatio="xMidYMid meet">
<metadata>
Created by potrace 1.16, written by Peter Selinger 2001-2019
</metadata>
<g transform="translate(0.000000,112.000000) scale(0.100000,-0.100000)"
fill="#FFFFFF" stroke="none">
<path d="M903 1113 c-18 -7 -16 -33 3 -33 8 0 22 6 29 14 21 21 1 33 -32 19z"/>
<path d="M895 1041 c4 -14 -3 -22 -28 -35 -35 -16 -47 -43 -47 -102 0 -27 7
-29 32 -10 11 8 15 20 11 34 -3 14 -1 22 7 22 6 0 10 10 8 25 -2 13 0 24 5 25
40 2 47 -1 47 -23 0 -14 -11 -29 -27 -39 -17 -11 -22 -18 -13 -18 8 -1 26 -14
40 -30 13 -17 30 -30 37 -30 7 0 13 -5 13 -12 0 -7 5 -6 13 4 6 9 24 18 40 22
27 6 27 7 11 32 -9 13 -25 29 -35 34 -9 6 -24 23 -32 39 -13 26 -13 30 3 44 9
8 23 17 31 20 8 3 -10 4 -38 2 -29 -2 -53 1 -53 6 0 5 -7 9 -16 9 -10 0 -13
-6 -9 -19z"/>
<path d="M700 912 c0 -7 -6 -12 -14 -12 -8 0 -18 -4 -21 -10 -9 -15 8 -12 31
4 10 8 16 18 11 22 -4 4 -7 2 -7 -4z"/>
<path d="M280 884 c-24 -10 -40 -25 -47 -45 -10 -25 -10 -29 2 -19 11 9 12 7
8 -9 -3 -12 -2 -21 2 -21 15 0 35 30 35 53 0 26 21 37 69 37 29 0 25 5 -9 13
-14 3 -41 -1 -60 -9z"/>
<path d="M472 874 c-12 -8 -22 -21 -22 -27 0 -8 3 -8 8 -2 4 6 23 18 42 27 26
12 30 17 15 17 -11 1 -31 -6 -43 -15z"/>
<path d="M490 800 c0 -11 -6 -23 -13 -27 -11 -7 -47 -67 -47 -80 0 -1 7 -3 15
-3 8 0 15 4 15 9 0 5 10 11 22 13 15 2 29 16 39 38 19 39 16 56 -12 63 -14 4
-19 0 -19 -13z"/>
<path d="M715 771 c-3 -12 -10 -21 -14 -21 -10 0 -31 -46 -31 -67 0 -12 5 -10
21 8 11 13 27 23 34 21 18 -4 37 24 33 50 -4 30 -34 36 -43 9z"/>
<path d="M211 618 c-5 -13 -7 -25 -5 -27 6 -7 22 9 27 29 7 27 -12 25 -22 -2z"/>
<path d="M326 405 c2 -33 9 -61 14 -63 6 -2 10 -14 10 -26 0 -12 9 -29 20 -39
23 -19 24 -16 10 27 -5 17 -14 52 -21 79 -6 26 -15 47 -20 47 -4 0 -10 8 -13
18 -3 9 -3 -10 0 -43z"/>
<path d="M550 445 c0 -8 6 -15 14 -15 11 0 13 -9 9 -34 -3 -18 -1 -36 4 -39 5
-3 10 15 12 40 1 26 4 50 7 55 3 4 -6 8 -20 8 -16 0 -26 -6 -26 -15z"/>
<path d="M664 428 c3 -18 8 -55 12 -83 7 -57 28 -115 43 -115 5 0 1 18 -10 40
-11 23 -19 61 -19 92 0 29 -3 63 -6 76 -10 34 -26 26 -20 -10z"/>
<path d="M574 325 c-10 -26 1 -148 14 -153 7 -2 12 -12 12 -23 0 -10 5 -19 10
-19 14 0 12 28 -5 76 -8 23 -15 62 -17 88 -3 50 -5 54 -14 31z"/>
<path d="M193 223 c-18 -6 -16 -33 1 -33 19 0 31 19 20 30 -5 4 -15 5 -21 3z"/>
</g>
</svg>
