<?xml version="1.0" standalone="no"?>
<!DOCTYPE svg PUBLIC "-//W3C//DTD SVG 20010904//EN"
 "http://www.w3.org/TR/2001/REC-SVG-20010904/DTD/svg10.dtd">
<svg version="1.0" xmlns="http://www.w3.org/2000/svg"
 width="112.000000pt" height="112.000000pt" viewBox="0 0 112.000000 112.000000"
 preserveAspectRatio="xMidYMid meet">
<metadata>
Created by potrace 1.16, written by Peter Selinger 2001-2019
</metadata>
<g transform="translate(0.000000,112.000000) scale(0.100000,-0.100000)"
fill="#FFFFFF" stroke="none">
<path d="M880 855 c0 -8 -5 -15 -11 -15 -6 0 -3 -7 5 -16 9 -8 16 -20 16 -25
0 -5 5 -9 10 -9 6 0 10 7 10 15 0 8 -5 15 -11 15 -5 0 -7 5 -4 10 3 6 17 10
31 10 15 0 24 6 24 15 0 10 -11 15 -35 15 -24 0 -35 -5 -35 -15z"/>
<path d="M838 797 c-17 -32 -7 -88 11 -59 4 7 22 14 41 15 27 2 35 -3 50 -31
l18 -32 6 26 c6 22 2 33 -20 53 -15 14 -24 20 -20 14 5 -9 0 -13 -13 -13 -11
0 -22 9 -26 19 -9 29 -33 33 -47 8z"/>
<path d="M113 763 c-13 -2 -23 -10 -23 -16 0 -7 -9 -19 -20 -27 -21 -15 -27
-50 -9 -50 7 0 19 9 28 19 25 29 55 31 59 4 4 -26 26 -30 48 -9 19 19 18 33
-3 45 -17 10 -17 12 1 26 19 14 17 15 -20 14 -21 -1 -49 -4 -61 -6z"/>
<path d="M420 740 c0 -5 11 -10 25 -10 14 0 25 5 25 10 0 6 -11 10 -25 10 -14
0 -25 -4 -25 -10z"/>
<path d="M640 740 c0 -5 7 -10 15 -10 8 0 15 5 15 10 0 6 -7 10 -15 10 -8 0
-15 -4 -15 -10z"/>
<path d="M970 689 c0 -27 3 -30 23 -23 31 9 31 9 10 33 -24 29 -33 26 -33 -10z"/>
<path d="M515 691 c3 -11 1 -22 -5 -26 -5 -3 -10 -20 -10 -36 0 -27 3 -30 23
-23 12 3 24 11 25 15 2 5 10 9 17 9 22 0 28 19 15 51 -10 23 -19 29 -42 29
-24 0 -28 -3 -23 -19z"/>
<path d="M756 655 c-3 -9 -2 -24 4 -33 5 -10 10 -12 10 -4 0 6 12 12 26 12 19
0 25 5 22 18 -4 23 -53 29 -62 7z"/>
<path d="M120 568 c0 -7 9 -24 20 -38 11 -14 20 -32 20 -41 0 -9 6 -22 14 -28
8 -7 24 -42 36 -78 21 -64 33 -80 134 -172 42 -37 30 -18 -21 36 -37 39 -52
65 -66 114 -31 108 -31 111 -13 125 14 10 15 16 6 33 -15 29 -36 26 -45 -6 -5
-20 -9 -24 -14 -13 -10 24 -54 80 -63 80 -4 0 -8 -6 -8 -12z"/>
<path d="M757 450 c3 -11 9 -20 13 -20 4 0 40 -31 79 -70 40 -38 75 -70 80
-70 4 0 18 -9 31 -20 13 -11 35 -19 49 -19 17 1 20 3 9 6 -10 2 -18 8 -18 13
0 4 -12 11 -27 15 -34 8 -130 106 -149 151 -12 28 -20 34 -43 34 -24 0 -28 -3
-24 -20z"/>
<path d="M637 303 c-3 -5 -1 -26 3 -48 l8 -40 1 48 c1 45 -2 56 -12 40z"/>
<path d="M142 178 c1 -56 4 -69 19 -73 28 -9 47 6 21 16 -15 6 -22 20 -27 56
-10 74 -14 74 -13 1z"/>
<path d="M642 150 c0 -19 2 -27 5 -17 2 9 2 25 0 35 -3 9 -5 1 -5 -18z"/>
<path d="M420 146 c0 -8 4 -17 9 -20 5 -4 7 3 4 14 -6 23 -13 26 -13 6z"/>
<path d="M455 110 c3 -5 12 -7 20 -3 21 7 19 13 -6 13 -11 0 -18 -4 -14 -10z"/>
<path d="M656 97 c3 -10 9 -15 12 -12 3 3 0 11 -7 18 -10 9 -11 8 -5 -6z"/>
</g>
</svg>
