<?xml version="1.0" standalone="no"?>
<!DOCTYPE svg PUBLIC "-//W3C//DTD SVG 20010904//EN"
 "http://www.w3.org/TR/2001/REC-SVG-20010904/DTD/svg10.dtd">
<svg version="1.0" xmlns="http://www.w3.org/2000/svg"
 width="112.000000pt" height="112.000000pt" viewBox="0 0 112.000000 112.000000"
 preserveAspectRatio="xMidYMid meet">
<metadata>
Created by potrace 1.16, written by Peter Selinger 2001-2019
</metadata>
<g transform="translate(0.000000,112.000000) scale(0.100000,-0.100000)"
fill="#FFFFFF" stroke="none">
<path d="M716 1064 c-4 -9 -5 -19 -3 -21 7 -7 57 16 57 27 0 17 -47 11 -54 -6z"/>
<path d="M727 1006 c-4 -10 -1 -16 8 -16 20 0 19 -20 -2 -35 -15 -11 -15 -13
5 -19 23 -8 30 -42 10 -48 -9 -3 -9 -12 1 -36 10 -24 20 -32 38 -32 14 0 21 4
18 10 -3 6 -2 10 4 10 5 0 14 -8 20 -17 8 -16 13 -16 45 -5 20 7 41 10 48 6 6
-4 4 3 -5 17 -9 13 -17 34 -17 47 0 13 -10 33 -22 44 -16 13 -19 21 -10 24 6
3 12 12 12 19 0 8 10 21 23 31 l22 16 -25 -6 c-14 -4 -37 -9 -51 -12 -21 -5
-26 -11 -23 -28 l5 -21 -10 21 c-11 26 -17 30 -57 38 -24 5 -33 3 -37 -8z"/>
<path d="M692 880 c-1 -23 -4 -46 -8 -51 -3 -5 -1 -9 4 -9 11 0 21 76 11 91
-3 5 -6 -9 -7 -31z"/>
<path d="M614 824 c-18 -14 -18 -15 4 -4 12 6 22 13 22 15 0 8 -5 6 -26 -11z"/>
<path d="M370 800 c-13 -11 -29 -20 -36 -20 -18 0 -35 -35 -28 -54 8 -22 24
-10 24 19 0 18 8 26 37 36 21 6 44 18 51 26 23 22 -21 16 -48 -7z"/>
<path d="M469 789 l-34 -31 37 18 c20 9 39 23 42 31 9 22 -8 15 -45 -18z"/>
<path d="M790 800 c0 -5 5 -10 10 -10 6 0 10 5 10 10 0 6 -4 10 -10 10 -5 0
-10 -4 -10 -10z"/>
<path d="M450 706 c0 -13 -7 -37 -15 -52 -19 -37 -20 -65 -1 -58 20 8 42 43
49 81 5 26 2 35 -13 43 -17 9 -20 7 -20 -14z"/>
<path d="M620 683 c0 -14 -6 -34 -14 -42 -7 -9 -17 -26 -20 -38 -6 -18 -4 -22
8 -17 9 3 16 10 16 15 0 5 9 9 20 9 17 0 20 7 20 50 0 38 -4 50 -15 50 -10 0
-15 -10 -15 -27z"/>
<path d="M675 305 c7 -102 8 -109 28 -113 21 -4 22 16 2 37 -8 9 -19 46 -24
81 l-10 65 4 -70z"/>
<path d="M532 330 c0 -14 2 -19 5 -12 2 6 2 18 0 25 -3 6 -5 1 -5 -13z"/>
<path d="M462 318 c2 -13 10 -24 19 -26 13 -2 15 3 12 23 -7 32 -36 34 -31 3z"/>
<path d="M532 280 c0 -14 2 -19 5 -12 2 6 2 18 0 25 -3 6 -5 1 -5 -13z"/>
<path d="M290 163 c0 -24 5 -43 10 -43 19 0 21 26 5 56 l-15 29 0 -42z"/>
<path d="M538 187 c-9 -22 -10 -113 -2 -144 9 -31 34 -29 34 2 0 14 -4 25 -10
25 -5 0 -10 30 -12 68 -2 42 -6 60 -10 49z"/>
</g>
</svg>
