<?xml version="1.0" standalone="no"?>
<!DOCTYPE svg PUBLIC "-//W3C//DTD SVG 20010904//EN"
 "http://www.w3.org/TR/2001/REC-SVG-20010904/DTD/svg10.dtd">
<svg version="1.0" xmlns="http://www.w3.org/2000/svg"
 width="112.000000pt" height="112.000000pt" viewBox="0 0 112.000000 112.000000"
 preserveAspectRatio="xMidYMid meet">
<metadata>
Created by potrace 1.16, written by Peter Selinger 2001-2019
</metadata>
<g transform="translate(0.000000,112.000000) scale(0.100000,-0.100000)"
fill="#FFFFFF" stroke="none">
<path d="M899 883 c-1 -10 0 -22 1 -28 1 -5 3 -16 3 -23 1 -20 22 -7 22 14 0
13 8 20 28 22 45 5 34 32 -13 32 -31 0 -40 -4 -41 -17z"/>
<path d="M850 785 c0 -33 1 -34 33 -29 17 3 38 7 44 9 14 5 45 -34 37 -47 -3
-4 -1 -8 4 -8 5 0 14 -10 20 -22 6 -13 11 -17 11 -10 1 6 10 12 21 12 29 0 25
10 -20 54 -22 22 -40 47 -40 55 -1 13 -2 13 -11 -1 -13 -24 -35 -23 -42 2 -3
14 -14 20 -31 20 -23 0 -26 -4 -26 -35z m150 -90 c0 -5 -5 -3 -10 5 -5 8 -10
20 -10 25 0 6 5 3 10 -5 5 -8 10 -19 10 -25z"/>
<path d="M135 799 c-5 -5 -22 -19 -37 -30 -35 -26 -38 -53 -5 -43 12 3 26 13
30 20 12 20 34 17 40 -6 7 -25 43 -26 56 -2 7 13 6 23 -2 32 -9 10 -9 14 1 17
6 3 12 9 12 14 0 12 -82 11 -95 -2z"/>
<path d="M448 763 c6 -2 18 -2 25 0 6 3 1 5 -13 5 -14 0 -19 -2 -12 -5z"/>
<path d="M678 763 c7 -3 16 -2 19 1 4 3 -2 6 -13 5 -11 0 -14 -3 -6 -6z"/>
<path d="M522 703 c-28 -73 -27 -75 15 -67 49 9 63 20 63 54 0 20 -6 29 -22
34 -38 10 -45 7 -56 -21z"/>
<path d="M766 659 c-9 -47 -8 -52 10 -34 9 9 23 14 30 11 18 -7 27 9 19 34 -4
12 -15 20 -29 20 -18 0 -25 -7 -30 -31z"/>
<path d="M120 614 c0 -8 4 -23 10 -33 5 -10 12 -33 15 -51 3 -18 10 -41 15
-51 6 -10 10 -38 10 -63 0 -38 9 -61 54 -134 66 -106 82 -122 116 -111 24 7
23 7 -7 8 -34 1 -50 18 -93 101 -16 31 -25 72 -31 135 -7 81 -6 91 12 106 26
22 25 59 -1 59 -13 0 -20 -7 -20 -19 0 -38 -17 -30 -41 19 -24 50 -39 63 -39
34z"/>
<path d="M710 450 c0 -11 4 -20 8 -20 4 0 18 -20 30 -45 31 -64 115 -160 131
-150 6 3 -5 22 -28 43 -21 21 -44 55 -51 80 -7 23 -17 42 -21 42 -5 0 -11 16
-15 35 -5 28 -11 35 -30 35 -17 0 -24 -6 -24 -20z"/>
<path d="M638 253 c2 -43 6 -80 8 -82 8 -9 3 135 -5 147 -4 7 -6 -22 -3 -65z"/>
<path d="M152 150 c2 -42 29 -63 51 -41 11 11 9 12 -15 15 -6 0 -16 16 -20 34
-12 44 -19 40 -16 -8z"/>
<path d="M650 124 c0 -5 7 -18 15 -28 8 -11 15 -16 15 -10 0 5 -7 18 -15 28
-8 11 -15 16 -15 10z"/>
</g>
</svg>
