<?xml version="1.0" standalone="no"?>
<!DOCTYPE svg PUBLIC "-//W3C//DTD SVG 20010904//EN"
 "http://www.w3.org/TR/2001/REC-SVG-20010904/DTD/svg10.dtd">
<svg version="1.0" xmlns="http://www.w3.org/2000/svg"
 width="112.000000pt" height="112.000000pt" viewBox="0 0 112.000000 112.000000"
 preserveAspectRatio="xMidYMid meet">
<metadata>
Created by potrace 1.16, written by Peter Selinger 2001-2019
</metadata>
<g transform="translate(0.000000,112.000000) scale(0.100000,-0.100000)"
fill="#FFFFFF" stroke="none">
<path d="M991 1073 c-1 -7 -7 -13 -15 -13 -14 0 -46 -36 -46 -52 0 -4 7 -5 15
-2 8 4 15 1 15 -5 0 -6 -4 -11 -10 -11 -5 0 -10 -7 -10 -15 0 -8 -9 -15 -20
-15 -24 0 -40 -28 -40 -70 0 -27 3 -31 18 -25 55 22 76 24 93 9 11 -10 25 -13
38 -9 16 5 20 3 15 -9 -3 -9 -15 -16 -27 -16 -38 0 -10 -10 35 -13 66 -4 61
14 -29 108 -40 41 -41 55 -5 56 20 1 17 3 -13 8 -27 4 -41 12 -43 24 -3 13 3
17 25 17 15 0 35 5 43 10 12 8 11 10 -7 10 -12 0 -24 6 -26 13 -4 10 -6 10 -6
0z m-1 -132 c0 -3 -7 -14 -14 -24 -12 -16 -14 -16 -20 -1 -11 30 -7 42 14 37
11 -3 20 -8 20 -12z"/>
<path d="M240 923 c-26 -11 -85 -72 -76 -80 4 -4 12 0 17 10 13 23 29 22 29
-3 0 -21 8 -24 34 -14 10 4 16 18 16 35 0 28 2 29 45 29 25 0 45 5 45 10 0 6
-12 10 -27 10 -16 0 -37 2 -48 5 -11 2 -27 1 -35 -2z"/>
<path d="M705 890 c-28 -7 -28 -8 -5 -9 14 0 32 4 40 9 17 11 8 11 -35 0z"/>
<path d="M475 880 c-8 -13 25 -13 45 0 12 8 9 10 -12 10 -15 0 -30 -4 -33 -10z"/>
<path d="M500 790 c-13 -22 -28 -40 -32 -40 -4 0 -8 -7 -8 -16 0 -28 64 -10
100 26 38 39 36 64 -5 68 -25 2 -34 -4 -55 -38z"/>
<path d="M770 780 c0 -5 -9 -19 -20 -30 -11 -11 -20 -30 -20 -42 1 -21 2 -21
11 -5 6 11 22 17 43 17 28 0 35 5 40 25 4 14 4 30 1 35 -8 13 -55 13 -55 0z"/>
<path d="M147 723 c-4 -3 -7 -37 -7 -74 0 -69 -12 -118 -33 -131 -6 -4 -12
-36 -13 -75 -1 -46 0 -52 3 -18 2 27 7 52 11 55 11 8 40 72 47 103 3 15 17 37
30 49 25 21 34 58 15 58 -5 0 -10 -4 -10 -8 0 -5 -8 -19 -19 -30 -18 -21 -18
-21 -13 28 4 49 2 57 -11 43z"/>
<path d="M603 495 c-12 -13 -11 -224 1 -267 5 -16 15 -28 23 -28 11 0 13 6 8
23 -14 46 -24 107 -20 119 3 7 9 43 13 79 8 68 -2 99 -25 74z"/>
<path d="M650 438 c1 -63 22 -193 35 -218 25 -48 30 -28 6 23 -16 33 -21 62
-21 125 0 48 -4 82 -10 82 -5 0 -10 -6 -10 -12z"/>
<path d="M234 322 c7 -84 8 -88 35 -95 17 -4 18 -2 10 14 -5 10 -13 27 -18 38
-5 10 -13 38 -16 62 -11 72 -18 59 -11 -19z"/>
<path d="M118 253 c-10 -3 -18 -9 -18 -14 0 -12 37 -12 45 0 7 12 -5 19 -27
14z"/>
</g>
</svg>
