<?xml version="1.0" standalone="no"?>
<!DOCTYPE svg PUBLIC "-//W3C//DTD SVG 20010904//EN"
 "http://www.w3.org/TR/2001/REC-SVG-20010904/DTD/svg10.dtd">
<svg version="1.0" xmlns="http://www.w3.org/2000/svg"
 width="112.000000pt" height="112.000000pt" viewBox="0 0 112.000000 112.000000"
 preserveAspectRatio="xMidYMid meet">
<metadata>
Created by potrace 1.16, written by Peter Selinger 2001-2019
</metadata>
<g transform="translate(0.000000,112.000000) scale(0.100000,-0.100000)"
fill="#FFFFFF" stroke="none">
<path d="M950 916 c0 -8 -8 -17 -17 -20 -12 -5 -14 -9 -5 -18 9 -9 15 -9 24 0
7 7 28 13 47 13 20 1 28 3 19 6 -10 2 -18 11 -18 19 0 8 -10 14 -25 14 -15 0
-25 -6 -25 -14z"/>
<path d="M180 863 c-8 -3 -23 -17 -33 -30 -10 -12 -25 -23 -33 -23 -8 0 -14
-7 -14 -15 0 -21 27 -19 47 5 22 25 43 26 43 1 0 -26 10 -31 39 -20 18 7 22
15 19 34 -4 17 -1 25 8 25 8 0 14 5 14 10 0 6 -8 10 -17 10 -10 0 -27 2 -38 5
-11 2 -27 1 -35 -2z"/>
<path d="M945 860 c-7 -11 2 -30 13 -30 4 0 8 9 8 20 0 21 -11 26 -21 10z"/>
<path d="M892 828 c-5 -7 -11 -27 -14 -45 -4 -27 -2 -31 16 -26 65 16 84 15
91 -6 3 -11 3 -26 -1 -32 -4 -8 -3 -9 4 -5 7 4 12 14 12 22 0 8 5 14 10 14 6
0 10 -13 10 -30 0 -29 1 -29 19 -13 22 19 19 29 -28 83 -25 29 -31 31 -37 17
-10 -26 -34 -21 -34 8 0 27 -29 35 -48 13z"/>
<path d="M470 804 c0 -8 11 -14 25 -14 14 0 25 4 25 9 0 5 -11 11 -25 13 -17
4 -25 1 -25 -8z"/>
<path d="M683 783 c9 -2 25 -2 35 0 9 3 1 5 -18 5 -19 0 -27 -2 -17 -5z"/>
<path d="M550 745 c0 -7 -6 -18 -13 -22 -14 -9 -40 -63 -33 -70 2 -3 24 -1 47
4 38 7 45 13 58 47 12 32 12 39 0 47 -22 14 -59 11 -59 -6z"/>
<path d="M800 686 c0 -15 -7 -26 -20 -29 -34 -9 -22 -26 17 -24 40 3 48 14 39
52 -8 32 -36 33 -36 1z"/>
<path d="M120 675 c0 -8 -6 -15 -12 -15 -9 0 -8 -4 2 -10 10 -6 11 -10 3 -10
-20 0 -15 -30 5 -30 16 -1 16 -1 0 -14 -21 -15 -24 -42 -5 -49 9 -4 9 -8 1
-14 -42 -30 -60 -213 -29 -298 8 -22 14 -34 15 -27 0 6 9 12 21 12 11 0 18 4
14 10 -3 5 -12 7 -19 4 -9 -3 -17 3 -21 16 -8 25 3 152 14 160 11 8 51 89 51
104 0 8 16 30 35 50 21 22 32 42 29 51 -9 22 -31 19 -37 -5 -9 -34 -23 -22
-36 30 -12 47 -31 68 -31 35z"/>
<path d="M658 459 c-13 -7 -14 -27 -11 -121 6 -154 5 -148 26 -148 16 0 18 5
12 23 -15 48 -16 85 -2 164 14 85 10 101 -25 82z"/>
<path d="M170 146 c0 -29 13 -46 34 -46 20 1 20 2 4 14 -10 7 -18 21 -18 30 0
9 -4 16 -10 16 -5 0 -10 -6 -10 -14z"/>
<path d="M661 148 c-1 -21 19 -68 31 -68 13 0 9 16 -6 30 -8 6 -17 21 -19 33
-3 15 -5 16 -6 5z"/>
</g>
</svg>
