<?xml version="1.0" standalone="no"?>
<!DOCTYPE svg PUBLIC "-//W3C//DTD SVG 20010904//EN"
 "http://www.w3.org/TR/2001/REC-SVG-20010904/DTD/svg10.dtd">
<svg version="1.0" xmlns="http://www.w3.org/2000/svg"
 width="112.000000pt" height="112.000000pt" viewBox="0 0 112.000000 112.000000"
 preserveAspectRatio="xMidYMid meet">
<metadata>
Created by potrace 1.16, written by Peter Selinger 2001-2019
</metadata>
<g transform="translate(0.000000,112.000000) scale(0.100000,-0.100000)"
fill="#FFFFFF" stroke="none">
<path d="M840 1075 c0 -16 17 -19 44 -9 26 10 18 24 -14 24 -20 0 -30 -5 -30
-15z"/>
<path d="M850 1033 c0 -30 -23 -72 -42 -77 -13 -3 -18 -14 -18 -39 0 -20 -6
-37 -12 -40 -7 -2 -10 -8 -6 -12 5 -5 18 -3 31 2 19 9 23 17 19 42 -3 20 0 31
7 31 7 0 10 3 8 8 -3 4 -1 16 4 27 6 17 8 17 8 3 1 -11 9 -18 21 -18 24 0 25
-8 4 -31 -13 -14 -13 -20 -2 -39 11 -17 19 -20 46 -15 23 4 32 3 27 -4 -3 -6
-13 -11 -21 -11 -21 0 -17 -17 6 -23 13 -3 20 0 20 9 0 17 20 19 20 2 0 -7 5
-5 11 5 5 9 16 17 23 17 8 0 -6 21 -30 48 -49 53 -55 78 -21 92 16 7 9 9 -30
5 -41 -3 -53 -1 -53 10 0 7 -4 17 -10 20 -5 3 -10 -2 -10 -12z"/>
<path d="M841 904 c0 -11 3 -14 6 -6 3 7 2 16 -1 19 -3 4 -6 -2 -5 -13z"/>
<path d="M650 875 c-14 -8 -20 -14 -14 -15 5 0 19 7 30 15 24 18 16 19 -16 0z"/>
<path d="M290 850 c0 -5 -6 -10 -14 -10 -18 0 -46 -27 -46 -43 0 -7 4 -18 9
-26 13 -21 43 5 39 33 -3 18 4 22 45 30 57 11 62 26 7 26 -22 0 -40 -4 -40
-10z"/>
<path d="M456 839 c-12 -11 -15 -19 -7 -19 18 0 51 19 51 30 0 16 -24 10 -44
-11z"/>
<path d="M462 758 c-6 -13 -18 -40 -27 -62 -15 -38 -15 -38 8 -32 12 3 28 6
35 6 6 0 12 8 12 18 0 10 4 22 9 28 4 5 11 21 15 37 6 24 3 27 -17 27 -14 0
-28 -9 -35 -22z"/>
<path d="M690 759 c0 -11 -9 -32 -20 -46 -22 -28 -26 -53 -10 -53 6 0 13 7 16
15 4 8 17 15 30 15 24 0 29 11 24 55 -4 35 -40 48 -40 14z"/>
<path d="M227 603 c-4 -3 -7 -11 -7 -17 0 -6 5 -5 12 2 6 6 9 14 7 17 -3 3 -9
2 -12 -2z"/>
<path d="M700 458 c1 -49 69 -195 95 -202 30 -8 30 0 -1 31 -36 35 -49 60 -58
109 -4 21 -9 47 -12 57 -6 20 -24 23 -24 5z"/>
<path d="M540 441 c0 -5 7 -16 15 -25 8 -8 15 -27 15 -42 0 -44 12 -19 17 33
2 34 0 44 -7 33 -6 -10 -10 -11 -10 -2 0 6 -7 12 -15 12 -8 0 -15 -4 -15 -9z"/>
<path d="M381 420 c-1 -9 8 -41 19 -73 11 -31 20 -63 20 -70 0 -8 11 -19 25
-25 21 -10 23 -9 18 6 -4 9 -12 26 -20 37 -7 11 -13 26 -13 34 0 8 -6 22 -14
30 -7 9 -18 30 -24 46 -6 17 -11 23 -11 15z"/>
<path d="M574 255 c7 -68 25 -125 39 -125 5 0 7 12 4 28 -23 112 -30 138 -39
147 -7 7 -9 -8 -4 -50z"/>
<path d="M210 205 c0 -8 7 -15 15 -15 9 0 12 6 9 15 -4 8 -10 15 -15 15 -5 0
-9 -7 -9 -15z"/>
</g>
</svg>
