<?xml version="1.0" standalone="no"?>
<!DOCTYPE svg PUBLIC "-//W3C//DTD SVG 20010904//EN"
 "http://www.w3.org/TR/2001/REC-SVG-20010904/DTD/svg10.dtd">
<svg version="1.0" xmlns="http://www.w3.org/2000/svg"
 width="112.000000pt" height="112.000000pt" viewBox="0 0 112.000000 112.000000"
 preserveAspectRatio="xMidYMid meet">
<metadata>
Created by potrace 1.16, written by Peter Selinger 2001-2019
</metadata>
<g transform="translate(0.000000,112.000000) scale(0.100000,-0.100000)"
fill="#FFFFFF" stroke="none">
<path d="M886 864 c-4 -9 -2 -22 4 -29 13 -15 3 -25 -27 -25 -20 0 -23 -5 -23
-40 0 -36 13 -55 22 -30 2 5 17 12 35 16 27 5 33 2 47 -22 8 -16 15 -23 16
-16 0 24 20 1 20 -24 0 -19 5 -24 25 -24 30 0 32 13 5 38 -12 11 -31 34 -44
51 -14 19 -27 28 -31 22 -3 -6 -14 -11 -24 -11 -20 0 -25 31 -7 42 6 4 12 12
12 18 1 5 2 15 3 20 0 6 15 10 31 10 17 0 30 5 30 10 0 6 -20 10 -44 10 -31 0
-46 -5 -50 -16z"/>
<path d="M112 767 c-28 -14 -59 -63 -49 -74 5 -4 11 -2 15 4 7 12 55 33 73 33
5 0 9 -9 9 -20 0 -25 15 -26 40 -2 13 12 16 22 10 32 -14 22 -12 28 13 33 12
2 -3 5 -33 5 -30 1 -66 -4 -78 -11z"/>
<path d="M443 753 c9 -2 23 -2 30 0 6 3 -1 5 -18 5 -16 0 -22 -2 -12 -5z"/>
<path d="M668 753 c7 -3 16 -2 19 1 4 3 -2 6 -13 5 -11 0 -14 -3 -6 -6z"/>
<path d="M520 693 c0 -13 -3 -23 -7 -23 -5 0 -9 -14 -10 -30 -2 -21 2 -30 12
-30 8 0 15 4 15 9 0 5 12 11 28 13 23 3 27 8 30 39 3 35 2 37 -32 41 -32 4
-36 1 -36 -19z"/>
<path d="M763 648 c0 -24 1 -37 4 -30 2 6 18 12 34 12 34 0 41 29 9 37 -11 3
-20 9 -20 14 0 5 -6 9 -13 9 -8 0 -13 -15 -14 -42z"/>
<path d="M120 589 c0 -11 15 -47 51 -125 10 -23 19 -55 19 -72 0 -20 15 -50
46 -91 54 -72 76 -90 35 -29 -39 58 -60 198 -35 236 15 22 14 25 -4 42 -20 19
-20 18 -26 -6 -8 -31 -19 -30 -37 4 -23 44 -49 66 -49 41z"/>
<path d="M740 450 c0 -11 20 -41 45 -68 25 -26 45 -53 45 -59 0 -7 4 -13 8
-13 4 0 26 -18 49 -39 22 -21 45 -36 50 -32 6 3 0 14 -15 26 -63 50 -132 149
-132 190 0 9 -9 15 -25 15 -18 0 -25 -5 -25 -20z"/>
<path d="M638 303 c-2 -5 -1 -30 3 -58 l6 -50 1 58 c2 52 -2 69 -10 50z"/>
<path d="M142 215 c0 -16 2 -22 5 -12 2 9 2 23 0 30 -3 6 -5 -1 -5 -18z"/>
<path d="M641 174 c0 -11 3 -14 6 -6 3 7 2 16 -1 19 -3 4 -6 -2 -5 -13z"/>
<path d="M366 151 c18 -36 54 -43 54 -11 0 11 -4 20 -10 20 -5 0 -10 -7 -10
-15 0 -8 -4 -15 -10 -15 -5 0 -10 6 -10 14 0 7 -7 19 -15 26 -12 10 -12 7 1
-19z"/>
<path d="M150 135 c0 -28 25 -44 43 -26 8 8 7 11 -6 11 -10 0 -17 8 -17 20 0
11 -4 20 -10 20 -5 0 -10 -11 -10 -25z"/>
</g>
</svg>
